<svg xmlns="http://www.w3.org/2000/svg" viewBox="0 0 1280 360" role="img" aria-label="QR Code generator — a high-quality QR Code generator library. Animation shows a QR code assembling module by module from a short URL until complete." font-family="'Segoe UI', system-ui, -apple-system, Roboto, Helvetica, Arial, sans-serif">
<title>QR Code generator</title>
<desc>Dark banner for nayuki's QR-Code-generator library. On the left, a QR code on a white card builds itself block by block from an encoded URL and holds complete, then reflows. On the right, the wordmark "QR Code generator", the tagline "High-quality QR Code generator library", and the supported languages.</desc>
<defs>
<clipPath id="round"><rect x="0" y="0" width="1280" height="360" rx="20"/></clipPath>
<linearGradient id="bg" x1="0" y1="0" x2="1" y2="1">
<stop offset="0" stop-color="#0d1117"/><stop offset="0.55" stop-color="#0c1220"/><stop offset="1" stop-color="#0a0f18"/>
</linearGradient>
<radialGradient id="glowA" cx="0.16" cy="0.28" r="0.6">
<stop offset="0" stop-color="#22d3ee" stop-opacity="0.28"/><stop offset="1" stop-color="#22d3ee" stop-opacity="0"/>
</radialGradient>
<radialGradient id="glowB" cx="0.78" cy="0.85" r="0.7">
<stop offset="0" stop-color="#818cf8" stop-opacity="0.20"/><stop offset="1" stop-color="#818cf8" stop-opacity="0"/>
</radialGradient>
<linearGradient id="paper" x1="0" y1="0" x2="0" y2="1">
<stop offset="0" stop-color="#f6f8fb"/><stop offset="1" stop-color="#e4eaf1"/>
</linearGradient>
<linearGradient id="wm" x1="0" y1="0" x2="1" y2="0">
<stop offset="0" stop-color="#5eead4"/><stop offset="0.5" stop-color="#22d3ee"/><stop offset="1" stop-color="#38bdf8"/>
</linearGradient>
<linearGradient id="scanG" x1="0" y1="0" x2="1" y2="0">
<stop offset="0" stop-color="#22d3ee" stop-opacity="0"/><stop offset="0.5" stop-color="#22d3ee" stop-opacity="0.9"/><stop offset="1" stop-color="#22d3ee" stop-opacity="0"/>
</linearGradient>
<pattern id="dots" width="16" height="16" patternUnits="userSpaceOnUse">
<rect x="0" y="0" width="6" height="6" rx="1" fill="#8892a0" opacity="0.05"/>
</pattern>
<filter id="soft" x="-30%" y="-30%" width="160%" height="160%">
<feGaussianBlur stdDeviation="6"/>
</filter>
<style><![CDATA[
.mod{fill:#11161d;opacity:1;transform-box:fill-box;transform-origin:center;
  animation:assemble 6.6s ease-in-out infinite;}
@keyframes assemble{
  0%{opacity:0;transform:scale(0.08)}
  5%{opacity:1;transform:scale(1)}
  80%{opacity:1;transform:scale(1)}
  90%{opacity:0;transform:scale(0.08)}
  100%{opacity:0;transform:scale(0.08)}
}
.scan{opacity:0;transform-box:fill-box;transform-origin:center;
  animation:sweep 6.6s ease-in-out infinite;}
@keyframes sweep{
  0%{transform:translateY(-6px);opacity:0}
  6%{opacity:0.85}
  78%{transform:translateY(190px);opacity:0.85}
  86%{transform:translateY(196px);opacity:0}
  100%{opacity:0}
}
.caret{opacity:1;animation:blink 1.05s steps(1) infinite;}
@keyframes blink{0%,55%{opacity:1}56%,100%{opacity:0}}
.done{opacity:0;animation:done 6.6s ease-in-out infinite;}
@keyframes done{0%,74%{opacity:0}82%,88%{opacity:1}96%,100%{opacity:0}}
@media (prefers-reduced-motion: reduce){
  .mod,.scan,.caret,.done{animation:none!important}
  .mod{opacity:1;transform:none}
  .scan{opacity:0}
  .caret{opacity:1}
  .done{opacity:1}
}
]]></style>
</defs>

<g clip-path="url(#round)">
  <rect width="1280" height="360" fill="url(#bg)"/>
  <rect width="1280" height="360" fill="url(#dots)"/>
  <rect width="1280" height="360" fill="url(#glowA)"/>
  <rect width="1280" height="360" fill="url(#glowB)"/>

  <rect x="66" y="44" width="276" height="276" rx="26" fill="#22d3ee" opacity="0.18" filter="url(#soft)"/>

  <rect x="80" y="56" width="248" height="248" rx="16" fill="url(#paper)" stroke="#cdd6e0" stroke-width="1"/>
  <g><rect class="mod" x="104.00" y="80.00" width="8.80" height="8.80" rx="1.2" style="animation-delay:0.000s"/><rect class="mod" x="113.50" y="80.00" width="8.80" height="8.80" rx="1.2" style="animation-delay:0.111s"/><rect class="mod" x="123.00" y="80.00" width="8.80" height="8.80" rx="1.2" style="animation-delay:0.162s"/><rect class="mod" x="132.50" y="80.00" width="8.80" height="8.80" rx="1.2" style="animation-delay:0.273s"/><rect class="mod" x="142.00" y="80.00" width="8.80" height="8.80" rx="1.2" style="animation-delay:0.324s"/><rect class="mod" x="151.50" y="80.00" width="8.80" height="8.80" rx="1.2" style="animation-delay:0.375s"/><rect class="mod" x="161.00" y="80.00" width="8.80" height="8.80" rx="1.2" style="animation-delay:0.486s"/><rect class="mod" x="180.00" y="80.00" width="8.80" height="8.80" rx="1.2" style="animation-delay:0.648s"/><rect class="mod" x="208.50" y="80.00" width="8.80" height="8.80" rx="1.2" style="animation-delay:0.861s"/><rect class="mod" x="218.00" y="80.00" width="8.80" height="8.80" rx="1.2" style="animation-delay:0.912s"/><rect class="mod" x="237.00" y="80.00" width="8.80" height="8.80" rx="1.2" style="animation-delay:1.074s"/><rect class="mod" x="246.50" y="80.00" width="8.80" height="8.80" rx="1.2" style="animation-delay:1.125s"/><rect class="mod" x="256.00" y="80.00" width="8.80" height="8.80" rx="1.2" style="animation-delay:1.236s"/><rect class="mod" x="265.50" y="80.00" width="8.80" height="8.80" rx="1.2" style="animation-delay:1.287s"/><rect class="mod" x="275.00" y="80.00" width="8.80" height="8.80" rx="1.2" style="animation-delay:1.398s"/><rect class="mod" x="284.50" y="80.00" width="8.80" height="8.80" rx="1.2" style="animation-delay:1.449s"/><rect class="mod" x="294.00" y="80.00" width="8.80" height="8.80" rx="1.2" style="animation-delay:1.500s"/><rect class="mod" x="104.00" y="89.50" width="8.80" height="8.80" rx="1.2" style="animation-delay:0.099s"/><rect class="mod" x="161.00" y="89.50" width="8.80" height="8.80" rx="1.2" style="animation-delay:0.525s"/><rect class="mod" x="189.50" y="89.50" width="8.80" height="8.80" rx="1.2" style="animation-delay:0.798s"/><rect class="mod" x="199.00" y="89.50" width="8.80" height="8.80" rx="1.2" style="animation-delay:0.849s"/><rect class="mod" x="237.00" y="89.50" width="8.80" height="8.80" rx="1.2" style="animation-delay:1.173s"/><rect class="mod" x="294.00" y="89.50" width="8.80" height="8.80" rx="1.2" style="animation-delay:1.599s"/><rect class="mod" x="104.00" y="99.00" width="8.80" height="8.80" rx="1.2" style="animation-delay:0.198s"/><rect class="mod" x="123.00" y="99.00" width="8.80" height="8.80" rx="1.2" style="animation-delay:0.300s"/><rect class="mod" x="132.50" y="99.00" width="8.80" height="8.80" rx="1.2" style="animation-delay:0.411s"/><rect class="mod" x="142.00" y="99.00" width="8.80" height="8.80" rx="1.2" style="animation-delay:0.462s"/><rect class="mod" x="161.00" y="99.00" width="8.80" height="8.80" rx="1.2" style="animation-delay:0.624s"/><rect class="mod" x="189.50" y="99.00" width="8.80" height="8.80" rx="1.2" style="animation-delay:0.837s"/><rect class="mod" x="199.00" y="99.00" width="8.80" height="8.80" rx="1.2" style="animation-delay:0.948s"/><rect class="mod" x="208.50" y="99.00" width="8.80" height="8.80" rx="1.2" style="animation-delay:0.999s"/><rect class="mod" x="237.00" y="99.00" width="8.80" height="8.80" rx="1.2" style="animation-delay:1.212s"/><rect class="mod" x="256.00" y="99.00" width="8.80" height="8.80" rx="1.2" style="animation-delay:1.374s"/><rect class="mod" x="265.50" y="99.00" width="8.80" height="8.80" rx="1.2" style="animation-delay:1.425s"/><rect class="mod" x="275.00" y="99.00" width="8.80" height="8.80" rx="1.2" style="animation-delay:1.536s"/><rect class="mod" x="294.00" y="99.00" width="8.80" height="8.80" rx="1.2" style="animation-delay:1.698s"/><rect class="mod" x="104.00" y="108.50" width="8.80" height="8.80" rx="1.2" style="animation-delay:0.237s"/><rect class="mod" x="123.00" y="108.50" width="8.80" height="8.80" rx="1.2" style="animation-delay:0.399s"/><rect class="mod" x="132.50" y="108.50" width="8.80" height="8.80" rx="1.2" style="animation-delay:0.450s"/><rect class="mod" x="142.00" y="108.50" width="8.80" height="8.80" rx="1.2" style="animation-delay:0.561s"/><rect class="mod" x="161.00" y="108.50" width="8.80" height="8.80" rx="1.2" style="animation-delay:0.723s"/><rect class="mod" x="180.00" y="108.50" width="8.80" height="8.80" rx="1.2" style="animation-delay:0.825s"/><rect class="mod" x="208.50" y="108.50" width="8.80" height="8.80" rx="1.2" style="animation-delay:1.098s"/><rect class="mod" x="237.00" y="108.50" width="8.80" height="8.80" rx="1.2" style="animation-delay:1.311s"/><rect class="mod" x="256.00" y="108.50" width="8.80" height="8.80" rx="1.2" style="animation-delay:1.473s"/><rect class="mod" x="265.50" y="108.50" width="8.80" height="8.80" rx="1.2" style="animation-delay:1.524s"/><rect class="mod" x="275.00" y="108.50" width="8.80" height="8.80" rx="1.2" style="animation-delay:1.575s"/><rect class="mod" x="294.00" y="108.50" width="8.80" height="8.80" rx="1.2" style="animation-delay:1.737s"/><rect class="mod" x="104.00" y="118.00" width="8.80" height="8.80" rx="1.2" style="animation-delay:0.336s"/><rect class="mod" x="123.00" y="118.00" width="8.80" height="8.80" rx="1.2" style="animation-delay:0.498s"/><rect class="mod" x="132.50" y="118.00" width="8.80" height="8.80" rx="1.2" style="animation-delay:0.549s"/><rect class="mod" x="142.00" y="118.00" width="8.80" height="8.80" rx="1.2" style="animation-delay:0.600s"/><rect class="mod" x="161.00" y="118.00" width="8.80" height="8.80" rx="1.2" style="animation-delay:0.762s"/><rect class="mod" x="180.00" y="118.00" width="8.80" height="8.80" rx="1.2" style="animation-delay:0.924s"/><rect class="mod" x="189.50" y="118.00" width="8.80" height="8.80" rx="1.2" style="animation-delay:0.975s"/><rect class="mod" x="199.00" y="118.00" width="8.80" height="8.80" rx="1.2" style="animation-delay:1.086s"/><rect class="mod" x="208.50" y="118.00" width="8.80" height="8.80" rx="1.2" style="animation-delay:1.137s"/><rect class="mod" x="237.00" y="118.00" width="8.80" height="8.80" rx="1.2" style="animation-delay:1.350s"/><rect class="mod" x="256.00" y="118.00" width="8.80" height="8.80" rx="1.2" style="animation-delay:1.512s"/><rect class="mod" x="265.50" y="118.00" width="8.80" height="8.80" rx="1.2" style="animation-delay:1.623s"/><rect class="mod" x="275.00" y="118.00" width="8.80" height="8.80" rx="1.2" style="animation-delay:1.674s"/><rect class="mod" x="294.00" y="118.00" width="8.80" height="8.80" rx="1.2" style="animation-delay:1.836s"/><rect class="mod" x="104.00" y="127.50" width="8.80" height="8.80" rx="1.2" style="animation-delay:0.375s"/><rect class="mod" x="161.00" y="127.50" width="8.80" height="8.80" rx="1.2" style="animation-delay:0.861s"/><rect class="mod" x="208.50" y="127.50" width="8.80" height="8.80" rx="1.2" style="animation-delay:1.236s"/><rect class="mod" x="218.00" y="127.50" width="8.80" height="8.80" rx="1.2" style="animation-delay:1.287s"/><rect class="mod" x="237.00" y="127.50" width="8.80" height="8.80" rx="1.2" style="animation-delay:1.449s"/><rect class="mod" x="294.00" y="127.50" width="8.80" height="8.80" rx="1.2" style="animation-delay:1.875s"/><rect class="mod" x="104.00" y="137.00" width="8.80" height="8.80" rx="1.2" style="animation-delay:0.474s"/><rect class="mod" x="113.50" y="137.00" width="8.80" height="8.80" rx="1.2" style="animation-delay:0.525s"/><rect class="mod" x="123.00" y="137.00" width="8.80" height="8.80" rx="1.2" style="animation-delay:0.636s"/><rect class="mod" x="132.50" y="137.00" width="8.80" height="8.80" rx="1.2" style="animation-delay:0.687s"/><rect class="mod" x="142.00" y="137.00" width="8.80" height="8.80" rx="1.2" style="animation-delay:0.798s"/><rect class="mod" x="151.50" y="137.00" width="8.80" height="8.80" rx="1.2" style="animation-delay:0.849s"/><rect class="mod" x="161.00" y="137.00" width="8.80" height="8.80" rx="1.2" style="animation-delay:0.900s"/><rect class="mod" x="180.00" y="137.00" width="8.80" height="8.80" rx="1.2" style="animation-delay:1.062s"/><rect class="mod" x="199.00" y="137.00" width="8.80" height="8.80" rx="1.2" style="animation-delay:1.224s"/><rect class="mod" x="218.00" y="137.00" width="8.80" height="8.80" rx="1.2" style="animation-delay:1.386s"/><rect class="mod" x="237.00" y="137.00" width="8.80" height="8.80" rx="1.2" style="animation-delay:1.548s"/><rect class="mod" x="246.50" y="137.00" width="8.80" height="8.80" rx="1.2" style="animation-delay:1.599s"/><rect class="mod" x="256.00" y="137.00" width="8.80" height="8.80" rx="1.2" style="animation-delay:1.650s"/><rect class="mod" x="265.50" y="137.00" width="8.80" height="8.80" rx="1.2" style="animation-delay:1.761s"/><rect class="mod" x="275.00" y="137.00" width="8.80" height="8.80" rx="1.2" style="animation-delay:1.812s"/><rect class="mod" x="284.50" y="137.00" width="8.80" height="8.80" rx="1.2" style="animation-delay:1.923s"/><rect class="mod" x="294.00" y="137.00" width="8.80" height="8.80" rx="1.2" style="animation-delay:1.974s"/><rect class="mod" x="199.00" y="146.50" width="8.80" height="8.80" rx="1.2" style="animation-delay:1.323s"/><rect class="mod" x="208.50" y="146.50" width="8.80" height="8.80" rx="1.2" style="animation-delay:1.374s"/><rect class="mod" x="218.00" y="146.50" width="8.80" height="8.80" rx="1.2" style="animation-delay:1.425s"/><rect class="mod" x="113.50" y="156.00" width="8.80" height="8.80" rx="1.2" style="animation-delay:0.723s"/><rect class="mod" x="142.00" y="156.00" width="8.80" height="8.80" rx="1.2" style="animation-delay:0.936s"/><rect class="mod" x="161.00" y="156.00" width="8.80" height="8.80" rx="1.2" style="animation-delay:1.098s"/><rect class="mod" x="199.00" y="156.00" width="8.80" height="8.80" rx="1.2" style="animation-delay:1.362s"/><rect class="mod" x="218.00" y="156.00" width="8.80" height="8.80" rx="1.2" style="animation-delay:1.524s"/><rect class="mod" x="227.50" y="156.00" width="8.80" height="8.80" rx="1.2" style="animation-delay:1.575s"/><rect class="mod" x="237.00" y="156.00" width="8.80" height="8.80" rx="1.2" style="animation-delay:1.686s"/><rect class="mod" x="246.50" y="156.00" width="8.80" height="8.80" rx="1.2" style="animation-delay:1.737s"/><rect class="mod" x="284.50" y="156.00" width="8.80" height="8.80" rx="1.2" style="animation-delay:2.061s"/><rect class="mod" x="294.00" y="156.00" width="8.80" height="8.80" rx="1.2" style="animation-delay:2.112s"/><rect class="mod" x="123.00" y="165.50" width="8.80" height="8.80" rx="1.2" style="animation-delay:0.873s"/><rect class="mod" x="132.50" y="165.50" width="8.80" height="8.80" rx="1.2" style="animation-delay:0.924s"/><rect class="mod" x="142.00" y="165.50" width="8.80" height="8.80" rx="1.2" style="animation-delay:0.975s"/><rect class="mod" x="151.50" y="165.50" width="8.80" height="8.80" rx="1.2" style="animation-delay:1.086s"/><rect class="mod" x="180.00" y="165.50" width="8.80" height="8.80" rx="1.2" style="animation-delay:1.299s"/><rect class="mod" x="189.50" y="165.50" width="8.80" height="8.80" rx="1.2" style="animation-delay:1.350s"/><rect class="mod" x="199.00" y="165.50" width="8.80" height="8.80" rx="1.2" style="animation-delay:1.461s"/><rect class="mod" x="208.50" y="165.50" width="8.80" height="8.80" rx="1.2" style="animation-delay:1.512s"/><rect class="mod" x="256.00" y="165.50" width="8.80" height="8.80" rx="1.2" style="animation-delay:1.887s"/><rect class="mod" x="265.50" y="165.50" width="8.80" height="8.80" rx="1.2" style="animation-delay:1.998s"/><rect class="mod" x="275.00" y="165.50" width="8.80" height="8.80" rx="1.2" style="animation-delay:2.049s"/><rect class="mod" x="294.00" y="165.50" width="8.80" height="8.80" rx="1.2" style="animation-delay:2.211s"/><rect class="mod" x="113.50" y="175.00" width="8.80" height="8.80" rx="1.2" style="animation-delay:0.861s"/><rect class="mod" x="151.50" y="175.00" width="8.80" height="8.80" rx="1.2" style="animation-delay:1.125s"/><rect class="mod" x="161.00" y="175.00" width="8.80" height="8.80" rx="1.2" style="animation-delay:1.236s"/><rect class="mod" x="170.50" y="175.00" width="8.80" height="8.80" rx="1.2" style="animation-delay:1.287s"/><rect class="mod" x="189.50" y="175.00" width="8.80" height="8.80" rx="1.2" style="animation-delay:1.449s"/><rect class="mod" x="208.50" y="175.00" width="8.80" height="8.80" rx="1.2" style="animation-delay:1.611s"/><rect class="mod" x="218.00" y="175.00" width="8.80" height="8.80" rx="1.2" style="animation-delay:1.662s"/><rect class="mod" x="275.00" y="175.00" width="8.80" height="8.80" rx="1.2" style="animation-delay:2.148s"/><rect class="mod" x="294.00" y="175.00" width="8.80" height="8.80" rx="1.2" style="animation-delay:2.250s"/><rect class="mod" x="113.50" y="184.50" width="8.80" height="8.80" rx="1.2" style="animation-delay:0.900s"/><rect class="mod" x="123.00" y="184.50" width="8.80" height="8.80" rx="1.2" style="animation-delay:1.011s"/><rect class="mod" x="132.50" y="184.50" width="8.80" height="8.80" rx="1.2" style="animation-delay:1.062s"/><rect class="mod" x="189.50" y="184.50" width="8.80" height="8.80" rx="1.2" style="animation-delay:1.548s"/><rect class="mod" x="218.00" y="184.50" width="8.80" height="8.80" rx="1.2" style="animation-delay:1.761s"/><rect class="mod" x="256.00" y="184.50" width="8.80" height="8.80" rx="1.2" style="animation-delay:2.025s"/><rect class="mod" x="104.00" y="194.00" width="8.80" height="8.80" rx="1.2" style="animation-delay:0.948s"/><rect class="mod" x="113.50" y="194.00" width="8.80" height="8.80" rx="1.2" style="animation-delay:0.999s"/><rect class="mod" x="132.50" y="194.00" width="8.80" height="8.80" rx="1.2" style="animation-delay:1.161s"/><rect class="mod" x="142.00" y="194.00" width="8.80" height="8.80" rx="1.2" style="animation-delay:1.212s"/><rect class="mod" x="161.00" y="194.00" width="8.80" height="8.80" rx="1.2" style="animation-delay:1.374s"/><rect class="mod" x="189.50" y="194.00" width="8.80" height="8.80" rx="1.2" style="animation-delay:1.587s"/><rect class="mod" x="199.00" y="194.00" width="8.80" height="8.80" rx="1.2" style="animation-delay:1.698s"/><rect class="mod" x="237.00" y="194.00" width="8.80" height="8.80" rx="1.2" style="animation-delay:1.962s"/><rect class="mod" x="256.00" y="194.00" width="8.80" height="8.80" rx="1.2" style="animation-delay:2.124s"/><rect class="mod" x="265.50" y="194.00" width="8.80" height="8.80" rx="1.2" style="animation-delay:2.175s"/><rect class="mod" x="275.00" y="194.00" width="8.80" height="8.80" rx="1.2" style="animation-delay:2.286s"/><rect class="mod" x="284.50" y="194.00" width="8.80" height="8.80" rx="1.2" style="animation-delay:2.337s"/><rect class="mod" x="180.00" y="203.50" width="8.80" height="8.80" rx="1.2" style="animation-delay:1.575s"/><rect class="mod" x="208.50" y="203.50" width="8.80" height="8.80" rx="1.2" style="animation-delay:1.848s"/><rect class="mod" x="218.00" y="203.50" width="8.80" height="8.80" rx="1.2" style="animation-delay:1.899s"/><rect class="mod" x="227.50" y="203.50" width="8.80" height="8.80" rx="1.2" style="animation-delay:1.950s"/><rect class="mod" x="256.00" y="203.50" width="8.80" height="8.80" rx="1.2" style="animation-delay:2.223s"/><rect class="mod" x="265.50" y="203.50" width="8.80" height="8.80" rx="1.2" style="animation-delay:2.274s"/><rect class="mod" x="104.00" y="213.00" width="8.80" height="8.80" rx="1.2" style="animation-delay:1.086s"/><rect class="mod" x="113.50" y="213.00" width="8.80" height="8.80" rx="1.2" style="animation-delay:1.137s"/><rect class="mod" x="123.00" y="213.00" width="8.80" height="8.80" rx="1.2" style="animation-delay:1.248s"/><rect class="mod" x="132.50" y="213.00" width="8.80" height="8.80" rx="1.2" style="animation-delay:1.299s"/><rect class="mod" x="142.00" y="213.00" width="8.80" height="8.80" rx="1.2" style="animation-delay:1.350s"/><rect class="mod" x="151.50" y="213.00" width="8.80" height="8.80" rx="1.2" style="animation-delay:1.461s"/><rect class="mod" x="161.00" y="213.00" width="8.80" height="8.80" rx="1.2" style="animation-delay:1.512s"/><rect class="mod" x="180.00" y="213.00" width="8.80" height="8.80" rx="1.2" style="animation-delay:1.674s"/><rect class="mod" x="199.00" y="213.00" width="8.80" height="8.80" rx="1.2" style="animation-delay:1.836s"/><rect class="mod" x="208.50" y="213.00" width="8.80" height="8.80" rx="1.2" style="animation-delay:1.887s"/><rect class="mod" x="237.00" y="213.00" width="8.80" height="8.80" rx="1.2" style="animation-delay:2.100s"/><rect class="mod" x="256.00" y="213.00" width="8.80" height="8.80" rx="1.2" style="animation-delay:2.262s"/><rect class="mod" x="284.50" y="213.00" width="8.80" height="8.80" rx="1.2" style="animation-delay:2.475s"/><rect class="mod" x="294.00" y="213.00" width="8.80" height="8.80" rx="1.2" style="animation-delay:2.586s"/><rect class="mod" x="104.00" y="222.50" width="8.80" height="8.80" rx="1.2" style="animation-delay:1.125s"/><rect class="mod" x="161.00" y="222.50" width="8.80" height="8.80" rx="1.2" style="animation-delay:1.611s"/><rect class="mod" x="189.50" y="222.50" width="8.80" height="8.80" rx="1.2" style="animation-delay:1.824s"/><rect class="mod" x="218.00" y="222.50" width="8.80" height="8.80" rx="1.2" style="animation-delay:2.037s"/><rect class="mod" x="227.50" y="222.50" width="8.80" height="8.80" rx="1.2" style="animation-delay:2.148s"/><rect class="mod" x="256.00" y="222.50" width="8.80" height="8.80" rx="1.2" style="animation-delay:2.361s"/><rect class="mod" x="275.00" y="222.50" width="8.80" height="8.80" rx="1.2" style="animation-delay:2.523s"/><rect class="mod" x="294.00" y="222.50" width="8.80" height="8.80" rx="1.2" style="animation-delay:2.625s"/><rect class="mod" x="104.00" y="232.00" width="8.80" height="8.80" rx="1.2" style="animation-delay:1.224s"/><rect class="mod" x="123.00" y="232.00" width="8.80" height="8.80" rx="1.2" style="animation-delay:1.386s"/><rect class="mod" x="132.50" y="232.00" width="8.80" height="8.80" rx="1.2" style="animation-delay:1.437s"/><rect class="mod" x="142.00" y="232.00" width="8.80" height="8.80" rx="1.2" style="animation-delay:1.548s"/><rect class="mod" x="161.00" y="232.00" width="8.80" height="8.80" rx="1.2" style="animation-delay:1.650s"/><rect class="mod" x="189.50" y="232.00" width="8.80" height="8.80" rx="1.2" style="animation-delay:1.923s"/><rect class="mod" x="218.00" y="232.00" width="8.80" height="8.80" rx="1.2" style="animation-delay:2.136s"/><rect class="mod" x="227.50" y="232.00" width="8.80" height="8.80" rx="1.2" style="animation-delay:2.187s"/><rect class="mod" x="237.00" y="232.00" width="8.80" height="8.80" rx="1.2" style="animation-delay:2.298s"/><rect class="mod" x="246.50" y="232.00" width="8.80" height="8.80" rx="1.2" style="animation-delay:2.349s"/><rect class="mod" x="256.00" y="232.00" width="8.80" height="8.80" rx="1.2" style="animation-delay:2.400s"/><rect class="mod" x="275.00" y="232.00" width="8.80" height="8.80" rx="1.2" style="animation-delay:2.562s"/><rect class="mod" x="284.50" y="232.00" width="8.80" height="8.80" rx="1.2" style="animation-delay:2.673s"/><rect class="mod" x="294.00" y="232.00" width="8.80" height="8.80" rx="1.2" style="animation-delay:2.724s"/><rect class="mod" x="104.00" y="241.50" width="8.80" height="8.80" rx="1.2" style="animation-delay:1.323s"/><rect class="mod" x="123.00" y="241.50" width="8.80" height="8.80" rx="1.2" style="animation-delay:1.425s"/><rect class="mod" x="132.50" y="241.50" width="8.80" height="8.80" rx="1.2" style="animation-delay:1.536s"/><rect class="mod" x="142.00" y="241.50" width="8.80" height="8.80" rx="1.2" style="animation-delay:1.587s"/><rect class="mod" x="161.00" y="241.50" width="8.80" height="8.80" rx="1.2" style="animation-delay:1.749s"/><rect class="mod" x="180.00" y="241.50" width="8.80" height="8.80" rx="1.2" style="animation-delay:1.911s"/><rect class="mod" x="199.00" y="241.50" width="8.80" height="8.80" rx="1.2" style="animation-delay:2.073s"/><rect class="mod" x="208.50" y="241.50" width="8.80" height="8.80" rx="1.2" style="animation-delay:2.124s"/><rect class="mod" x="218.00" y="241.50" width="8.80" height="8.80" rx="1.2" style="animation-delay:2.175s"/><rect class="mod" x="256.00" y="241.50" width="8.80" height="8.80" rx="1.2" style="animation-delay:2.499s"/><rect class="mod" x="275.00" y="241.50" width="8.80" height="8.80" rx="1.2" style="animation-delay:2.661s"/><rect class="mod" x="294.00" y="241.50" width="8.80" height="8.80" rx="1.2" style="animation-delay:2.823s"/><rect class="mod" x="104.00" y="251.00" width="8.80" height="8.80" rx="1.2" style="animation-delay:1.362s"/><rect class="mod" x="123.00" y="251.00" width="8.80" height="8.80" rx="1.2" style="animation-delay:1.524s"/><rect class="mod" x="132.50" y="251.00" width="8.80" height="8.80" rx="1.2" style="animation-delay:1.575s"/><rect class="mod" x="142.00" y="251.00" width="8.80" height="8.80" rx="1.2" style="animation-delay:1.686s"/><rect class="mod" x="161.00" y="251.00" width="8.80" height="8.80" rx="1.2" style="animation-delay:1.848s"/><rect class="mod" x="180.00" y="251.00" width="8.80" height="8.80" rx="1.2" style="animation-delay:1.950s"/><rect class="mod" x="189.50" y="251.00" width="8.80" height="8.80" rx="1.2" style="animation-delay:2.061s"/><rect class="mod" x="199.00" y="251.00" width="8.80" height="8.80" rx="1.2" style="animation-delay:2.112s"/><rect class="mod" x="227.50" y="251.00" width="8.80" height="8.80" rx="1.2" style="animation-delay:2.325s"/><rect class="mod" x="256.00" y="251.00" width="8.80" height="8.80" rx="1.2" style="animation-delay:2.598s"/><rect class="mod" x="294.00" y="251.00" width="8.80" height="8.80" rx="1.2" style="animation-delay:2.862s"/><rect class="mod" x="104.00" y="260.50" width="8.80" height="8.80" rx="1.2" style="animation-delay:1.461s"/><rect class="mod" x="161.00" y="260.50" width="8.80" height="8.80" rx="1.2" style="animation-delay:1.887s"/><rect class="mod" x="189.50" y="260.50" width="8.80" height="8.80" rx="1.2" style="animation-delay:2.100s"/><rect class="mod" x="218.00" y="260.50" width="8.80" height="8.80" rx="1.2" style="animation-delay:2.373s"/><rect class="mod" x="237.00" y="260.50" width="8.80" height="8.80" rx="1.2" style="animation-delay:2.475s"/><rect class="mod" x="246.50" y="260.50" width="8.80" height="8.80" rx="1.2" style="animation-delay:2.586s"/><rect class="mod" x="256.00" y="260.50" width="8.80" height="8.80" rx="1.2" style="animation-delay:2.637s"/><rect class="mod" x="265.50" y="260.50" width="8.80" height="8.80" rx="1.2" style="animation-delay:2.748s"/><rect class="mod" x="284.50" y="260.50" width="8.80" height="8.80" rx="1.2" style="animation-delay:2.850s"/><rect class="mod" x="294.00" y="260.50" width="8.80" height="8.80" rx="1.2" style="animation-delay:2.961s"/><rect class="mod" x="104.00" y="270.00" width="8.80" height="8.80" rx="1.2" style="animation-delay:1.500s"/><rect class="mod" x="113.50" y="270.00" width="8.80" height="8.80" rx="1.2" style="animation-delay:1.611s"/><rect class="mod" x="123.00" y="270.00" width="8.80" height="8.80" rx="1.2" style="animation-delay:1.662s"/><rect class="mod" x="132.50" y="270.00" width="8.80" height="8.80" rx="1.2" style="animation-delay:1.773s"/><rect class="mod" x="142.00" y="270.00" width="8.80" height="8.80" rx="1.2" style="animation-delay:1.824s"/><rect class="mod" x="151.50" y="270.00" width="8.80" height="8.80" rx="1.2" style="animation-delay:1.875s"/><rect class="mod" x="161.00" y="270.00" width="8.80" height="8.80" rx="1.2" style="animation-delay:1.986s"/><rect class="mod" x="180.00" y="270.00" width="8.80" height="8.80" rx="1.2" style="animation-delay:2.148s"/><rect class="mod" x="189.50" y="270.00" width="8.80" height="8.80" rx="1.2" style="animation-delay:2.199s"/><rect class="mod" x="227.50" y="270.00" width="8.80" height="8.80" rx="1.2" style="animation-delay:2.523s"/><rect class="mod" x="237.00" y="270.00" width="8.80" height="8.80" rx="1.2" style="animation-delay:2.574s"/><rect class="mod" x="246.50" y="270.00" width="8.80" height="8.80" rx="1.2" style="animation-delay:2.625s"/><rect class="mod" x="275.00" y="270.00" width="8.80" height="8.80" rx="1.2" style="animation-delay:2.898s"/><rect class="mod" x="294.00" y="270.00" width="8.80" height="8.80" rx="1.2" style="animation-delay:3.000s"/></g>
  <rect class="scan" x="104" y="80" width="199.5" height="4" rx="2" fill="url(#scanG)"/>
  <g class="done" transform="translate(300,76)">
    <circle r="15" fill="#0d1117" stroke="#2dd4bf" stroke-width="2"/>
    <path d="M -6 0 L -1.5 5 L 7 -6" fill="none" stroke="#2dd4bf" stroke-width="2.6" stroke-linecap="round" stroke-linejoin="round"/>
  </g>

  <g transform="translate(204,330)" text-anchor="middle">
    <rect x="-118" y="-15" width="236" height="26" rx="13" fill="#161b22" stroke="#2b3440" stroke-width="1"/>
    <text x="-104" y="4" text-anchor="start" font-size="13" font-family="'Cascadia Code','Consolas',ui-monospace,monospace" fill="#7ee7d8">https://github.com/nayuki<tspan class="caret" fill="#2dd4bf">_</tspan></text>
  </g>

  <g transform="translate(398,0)">
    <g transform="translate(2,112)">
      <rect x="0" y="-14" width="10" height="10" rx="2" fill="#2dd4bf"/>
      <text x="22" y="-4" font-size="15" letter-spacing="3.5" font-weight="600" fill="#5eead4">OPEN-SOURCE QR CODE LIBRARY</text>
    </g>

    <text x="0" y="188" font-size="66" font-weight="800" letter-spacing="-1">
      <tspan fill="url(#wm)">QR</tspan><tspan fill="#e8eef5"> Code </tspan><tspan fill="#c3ccd6" font-weight="600">generator</tspan>
    </text>

    <text x="2" y="234" font-size="24" font-weight="500" fill="#9fb0c0">High-quality QR Code generator for every stack.</text>

    <g transform="translate(2,282)" font-size="16" font-weight="600">
      <text x="0" y="0" fill="#8a97a6">Java<tspan fill="#3a4550">  ·  </tspan><tspan fill="#8a97a6">TypeScript</tspan><tspan fill="#3a4550">  ·  </tspan><tspan fill="#8a97a6">Python</tspan><tspan fill="#3a4550">  ·  </tspan><tspan fill="#8a97a6">Rust</tspan><tspan fill="#3a4550">  ·  </tspan><tspan fill="#8a97a6">C</tspan><tspan fill="#3a4550">  ·  </tspan><tspan fill="#8a97a6">C++</tspan></text>
    </g>

    <text x="2" y="322" font-size="14" font-family="'Cascadia Code','Consolas',ui-monospace,monospace" fill="#5c6773">
      <tspan fill="#2dd4bf">★</tspan> MIT  ·  github.com/nayuki/QR-Code-generator</text>
  </g>

  <rect x="0.75" y="0.75" width="1278.5" height="358.5" rx="19.25" fill="none" stroke="#1b2430" stroke-width="1.5"/>
</g>
</svg>