<svg xmlns="http://www.w3.org/2000/svg" viewBox="0 0 1200 400" width="1200" height="400" role="img" aria-label="A hero-readme banner assembling itself: background ignites, wordmark appears, hero band materializes" font-family="'Segoe UI',system-ui,-apple-system,Roboto,Helvetica,Arial,sans-serif">
<title>Boot-up — the hero assembles</title><desc>The flow-field background fades in, the wordmark rises into place, and the hero band grows downward, then a shimmer runs across it. Loops.</desc>
<defs>
<linearGradient id="accent" x1="0" y1="0" x2="1" y2="1"><stop offset="0" stop-color="#6366f1"/><stop offset="0.5" stop-color="#8b5cf6"/><stop offset="1" stop-color="#22d3ee"/></linearGradient>
<linearGradient id="shimmer" x1="0" y1="0" x2="1" y2="0"><stop offset="0" stop-color="#fff" stop-opacity="0"/><stop offset="0.5" stop-color="#fff" stop-opacity="0.5"/><stop offset="1" stop-color="#fff" stop-opacity="0"/></linearGradient>
<radialGradient id="vig" cx="0.5" cy="0.5" r="0.72"><stop offset="0.6" stop-color="#000" stop-opacity="0"/><stop offset="1" stop-color="#000" stop-opacity="0.42"/></radialGradient>
<clipPath id="frame"><rect width="1200" height="400" rx="18"/></clipPath></defs>
<style>.s{stroke-dasharray:8 34;animation:flow linear infinite}.d{transform-box:fill-box;transform-origin:center;animation:tw ease-in-out infinite}
@keyframes flow{to{stroke-dashoffset:-42}}@keyframes tw{0%,100%{transform:scale(.7)}50%{transform:scale(1.25)}}
.bgin{opacity:1}.wm{opacity:1}.tg{opacity:1}.band{opacity:1}.shim{animation:sweep 3.4s ease-in-out infinite}
@media (prefers-reduced-motion:no-preference){
 .bgin{animation:fadein 6.5s ease-out infinite}
 .wm{animation:wmin 6.5s ease-out infinite}
 .tg{animation:tgin 6.5s ease-out infinite}
 .band{transform-box:fill-box;transform-origin:top;animation:bandin 6.5s ease-out infinite}
}
@keyframes fadein{0%{opacity:0}14%{opacity:1}90%{opacity:1}100%{opacity:0}}
@keyframes wmin{0%,16%{opacity:0;transform:translateY(14px)}34%{opacity:1;transform:translateY(0)}90%{opacity:1;transform:translateY(0)}100%{opacity:0;transform:translateY(14px)}}
@keyframes tgin{0%,30%{opacity:0}46%{opacity:1}90%{opacity:1}100%{opacity:0}}
@keyframes bandin{0%,42%{opacity:0;transform:scaleY(0.04)}60%{opacity:1;transform:scaleY(1)}90%{opacity:1;transform:scaleY(1)}100%{opacity:0;transform:scaleY(0.04)}}
@keyframes sweep{0%{transform:translateX(-120px)}52%{transform:translateX(520px)}100%{transform:translateX(520px)}}</style>
<g clip-path="url(#frame)">
<rect width="1200" height="400" fill="#0d1117"/>
<g class="bgin"><g><path class="s" d="M-140,-6.8 L-114,-8.9 L-88,-8.7 L-62,-5.8 L-36,-0.6 L-10,6.3 L16,13.7 L42,20.3 L68,25.0 L94,27.3 L120,26.9 L146,24.5 L172,20.8 L198,17.0 L224,14.0 L250,12.4 L276,12.2 L302,13.0 L328,14.0 L354,14.3 L380,13.1 L406,10.0 L432,5.3 L458,-0.4 L484,-6.0 L510,-10.3 L536,-12.4 L562,-11.8 L588,-8.3 L614,-2.7 L640,4.0 L666,10.6 L692,16.0 L718,19.5 L744,20.7 L770,20.0 L796,18.3 L822,16.4 L848,15.2 L874,15.3 L900,16.7 L926,19.0 L952,21.3 L978,22.6 L1004,22.0 L1030,19.2 L1056,14.2 L1082,7.6 L1108,0.5 L1134,-5.8 L1160,-10.2 L1186,-12.0 L1212,-11.0 L1238,-7.6 L1264,-2.7 L1290,2.7 L1316,7.3" fill="none" stroke="#818cf8" stroke-width="1.3" stroke-linecap="round" opacity="0.33" style="animation-duration:2.66s;animation-delay:-1.41s"/><path class="s" d="M-140,26.6 L-114,33.3 L-88,42.2 L-62,52.1 L-36,61.5 L-10,69.0 L16,73.5 L42,74.7 L68,72.7 L94,68.3 L120,62.6 L146,56.8 L172,51.7 L198,47.9 L224,45.3 L250,43.6 L276,42.0 L302,39.9 L328,36.9 L354,33.2 L380,29.1 L406,25.6 L432,23.8 L458,24.4 L484,28.1 L510,34.6 L536,43.4 L562,53.2 L588,62.5 L614,70.0 L640,74.5 L666,75.6 L692,73.4 L718,68.6 L744,62.4 L770,55.9 L796,50.2 L822,45.8 L848,42.9 L874,41.1 L900,39.8 L926,38.3 L952,36.0 L978,33.1 L1004,29.7 L1030,26.8 L1056,25.3 L1082,26.1 L1108,29.6 L1134,36.0 L1160,44.6 L1186,54.2 L1212,63.5 L1238,70.9 L1264,75.3 L1290,76.3 L1316,73.9" fill="none" stroke="#a78bfa" stroke-width="1.7" stroke-linecap="round" opacity="0.30" style="animation-duration:3.72s;animation-delay:-3.39s"/><path class="s" d="M-140,85.3 L-114,98.1 L-88,109.2 L-62,117.2 L-36,121.0 L-10,120.4 L16,116.0 L42,108.8 L68,100.2 L94,91.5 L120,83.7 L146,77.4 L172,72.6 L198,69.2 L224,66.7 L250,64.8 L276,63.3 L302,62.4 L328,62.7 L354,64.8 L380,69.3 L406,76.3 L432,85.5 L458,96.1 L484,106.7 L510,115.7 L536,121.7 L562,123.4 L588,120.4 L614,113.1 L640,102.5 L666,90.1 L692,77.9 L718,67.4 L744,59.9 L770,56.0 L796,55.7 L822,58.3 L848,62.8 L874,68.4 L900,74.0 L926,79.3 L952,84.3 L978,89.0 L1004,93.9 L1030,99.1 L1056,104.5 L1082,109.6 L1108,113.7 L1134,115.7 L1160,114.7 L1186,110.2 L1212,102.2 L1238,91.4 L1264,79.1 L1290,67.0 L1316,56.9" fill="none" stroke="#22d3ee" stroke-width="2.1" stroke-linecap="round" opacity="0.30" style="animation-duration:3.72s;animation-delay:-0.41s"/><path class="s" d="M-140,140.1 L-114,143.5 L-88,143.5 L-62,140.5 L-36,135.5 L-10,129.5 L16,123.8 L42,119.3 L68,116.6 L94,115.6 L120,116.0 L146,117.0 L172,117.9 L198,118.3 L224,118.0 L250,117.5 L276,117.2 L302,118.0 L328,120.1 L354,123.9 L380,129.0 L406,134.5 L432,139.4 L458,142.5 L484,142.8 L510,140.0 L536,134.2 L562,126.4 L588,117.9 L614,110.2 L640,104.7 L666,102.5 L692,103.9 L718,108.4 L744,115.1 L770,122.6 L796,129.6 L822,134.8 L848,137.6 L874,138.0 L900,136.4 L926,133.6 L952,130.5 L978,127.9 L1004,126.1 L1030,125.2 L1056,124.7 L1082,124.1 L1108,122.8 L1134,120.5 L1160,117.4 L1186,113.9 L1212,110.9 L1238,109.4 L1264,110.1 L1290,113.5 L1316,119.2" fill="none" stroke="#60a5fa" stroke-width="1.3" stroke-linecap="round" opacity="0.33" style="animation-duration:3.89s;animation-delay:-1.08s"/><path class="s" d="M-140,186.9 L-114,180.5 L-88,173.1 L-62,166.1 L-36,160.3 L-10,156.3 L16,154.1 L42,153.2 L68,152.8 L94,152.1 L120,150.5 L146,147.9 L172,144.7 L198,141.5 L224,139.4 L250,139.4 L276,142.1 L302,147.6 L328,155.3 L354,164.4 L380,173.4 L406,181.1 L432,186.3 L458,188.6 L484,188.0 L510,185.0 L536,180.7 L562,176.1 L588,172.2 L614,169.4 L640,167.8 L666,166.8 L692,165.8 L718,163.8 L744,160.5 L770,155.5 L796,149.5 L822,143.1 L848,137.6 L874,134.1 L900,133.6 L926,136.2 L952,141.9 L978,149.7 L1004,158.4 L1030,166.7 L1056,173.4 L1082,177.9 L1108,180.0 L1134,180.1 L1160,179.0 L1186,177.5 L1212,176.6 L1238,176.5 L1264,177.3 L1290,178.3 L1316,178.8" fill="none" stroke="#818cf8" stroke-width="1.7" stroke-linecap="round" opacity="0.36" style="animation-duration:2.85s;animation-delay:-2.07s"/><path class="s" d="M-140,211.0 L-114,202.0 L-88,194.4 L-62,188.8 L-36,185.1 L-10,182.7 L16,181.2 L42,179.9 L68,178.5 L94,177.2 L120,176.5 L146,177.1 L172,179.9 L198,185.2 L224,193.2 L250,203.2 L276,214.1 L302,224.5 L328,232.7 L354,237.7 L380,238.6 L406,235.3 L432,228.5 L458,219.4 L484,209.3 L510,199.8 L536,191.8 L562,186.0 L588,182.3 L614,180.4 L640,179.5 L666,179.1 L692,178.7 L718,178.3 L744,178.4 L770,179.6 L796,182.5 L822,187.8 L848,195.5 L874,205.1 L900,215.5 L926,225.4 L952,233.3 L978,238.0 L1004,238.5 L1030,235.0 L1056,227.8 L1082,218.2 L1108,207.6 L1134,197.6 L1160,189.2 L1186,183.2 L1212,179.6 L1238,178.1 L1264,178.0 L1290,178.5 L1316,179.1" fill="none" stroke="#a78bfa" stroke-width="2.1" stroke-linecap="round" opacity="0.42" style="animation-duration:2.94s;animation-delay:-1.92s"/><path class="s" d="M-140,231.9 L-114,231.1 L-88,231.6 L-62,232.5 L-36,233.2 L-10,233.1 L16,232.2 L42,230.6 L68,229.3 L94,228.9 L120,230.3 L146,233.7 L172,239.0 L198,245.5 L224,252.0 L250,257.4 L276,260.3 L302,260.1 L328,256.7 L354,250.6 L380,242.8 L406,234.8 L432,227.9 L458,223.3 L484,221.5 L510,222.4 L536,225.5 L562,229.7 L588,234.0 L614,237.5 L640,239.7 L666,240.7 L692,240.8 L718,240.8 L744,241.4 L770,243.0 L796,245.7 L822,249.1 L848,252.3 L874,254.4 L900,254.5 L926,252.0 L952,247.0 L978,240.0 L1004,232.3 L1030,225.1 L1056,219.7 L1082,217.3 L1108,218.2 L1134,222.2 L1160,228.4 L1186,235.7 L1212,242.6 L1238,248.0 L1264,251.3 L1290,252.2 L1316,251.2" fill="none" stroke="#22d3ee" stroke-width="1.3" stroke-linecap="round" opacity="0.43" style="animation-duration:2.96s;animation-delay:-0.51s"/><path class="s" d="M-140,266.8 L-114,265.3 L-88,264.0 L-62,262.9 L-36,262.2 L-10,262.4 L16,264.1 L42,267.7 L68,273.4 L94,280.7 L120,288.9 L146,296.6 L172,302.5 L198,305.2 L224,304.0 L250,298.7 L276,289.9 L302,279.1 L328,267.9 L354,258.2 L380,251.5 L406,248.9 L432,250.4 L458,255.7 L484,263.5 L510,272.3 L536,280.7 L562,287.6 L588,292.1 L614,294.3 L640,294.5 L666,293.3 L692,291.3 L718,289.1 L744,286.9 L770,284.5 L796,281.6 L822,278.0 L848,273.3 L874,267.9 L900,262.2 L926,257.4 L952,254.3 L978,254.1 L1004,257.3 L1030,263.9 L1056,273.1 L1082,283.7 L1108,293.9 L1134,302.1 L1160,306.8 L1186,307.1 L1212,303.0 L1238,295.4 L1264,285.4 L1290,275.0 L1316,265.7" fill="none" stroke="#60a5fa" stroke-width="1.7" stroke-linecap="round" opacity="0.44" style="animation-duration:3.85s;animation-delay:-0.14s"/><path class="s" d="M-140,296.3 L-114,298.0 L-88,299.5 L-62,301.3 L-36,304.3 L-10,309.0 L16,315.7 L42,324.1 L68,333.2 L94,342.0 L120,349.0 L146,353.1 L172,353.6 L198,350.3 L224,343.9 L250,335.5 L276,326.2 L302,317.4 L328,310.1 L354,304.8 L380,301.4 L406,299.4 L432,298.0 L458,296.6 L484,294.6 L510,292.2 L536,289.7 L562,288.0 L588,288.0 L614,290.5 L640,296.0 L666,304.3 L692,314.5 L718,325.4 L744,335.7 L770,343.9 L796,349.0 L822,350.7 L848,349.0 L874,344.9 L900,339.3 L926,333.4 L952,328.1 L978,323.7 L1004,320.4 L1030,317.5 L1056,314.4 L1082,310.5 L1108,305.3 L1134,299.1 L1160,292.4 L1186,286.1 L1212,281.6 L1238,279.8 L1264,281.5 L1290,286.7 L1316,294.9" fill="none" stroke="#818cf8" stroke-width="2.1" stroke-linecap="round" opacity="0.35" style="animation-duration:2.30s;animation-delay:-2.30s"/><path class="s" d="M-140,347.2 L-114,346.7 L-88,347.5 L-62,350.1 L-36,354.6 L-10,360.3 L16,366.5 L42,371.7 L68,375.0 L94,375.5 L120,373.0 L146,367.7 L172,360.7 L198,353.2 L224,346.5 L250,341.7 L276,339.3 L302,339.3 L328,341.2 L354,344.0 L380,346.9 L406,349.0 L432,349.9 L458,349.7 L484,348.9 L510,348.4 L536,349.0 L562,351.2 L588,355.2 L614,360.5 L640,366.3 L666,371.3 L692,374.6 L718,375.1 L744,372.6 L770,367.4 L796,360.4 L822,352.7 L848,345.8 L874,340.7 L900,338.1 L926,338.0 L952,340.0 L978,343.2 L1004,346.6 L1030,349.3 L1056,350.8 L1082,351.1 L1108,350.6 L1134,350.2 L1160,350.5 L1186,352.3 L1212,355.8 L1238,360.6 L1264,366.0 L1290,370.8 L1316,373.9" fill="none" stroke="#a78bfa" stroke-width="1.3" stroke-linecap="round" opacity="0.29" style="animation-duration:2.87s;animation-delay:-3.70s"/><path class="s" d="M-140,387.3 L-114,393.8 L-88,401.6 L-62,409.5 L-36,416.2 L-10,420.4 L16,421.1 L42,418.0 L68,411.2 L94,401.9 L120,391.4 L146,381.5 L172,373.5 L198,368.5 L224,367.0 L250,368.8 L276,372.9 L302,378.3 L328,384.0 L354,389.1 L380,393.1 L406,396.0 L432,398.2 L458,400.3 L484,402.7 L510,405.6 L536,408.7 L562,411.4 L588,412.9 L614,412.3 L640,408.9 L666,402.9 L692,394.5 L718,384.9 L744,375.5 L770,367.9 L796,363.4 L822,362.7 L848,366.1 L874,372.8 L900,381.7 L926,391.3 L952,400.1 L978,406.9 L1004,411.0 L1030,412.4 L1056,411.6 L1082,409.4 L1108,406.5 L1134,403.8 L1160,401.5 L1186,399.5 L1212,397.4 L1238,394.7 L1264,391.0 L1290,386.0 L1316,380.2" fill="none" stroke="#22d3ee" stroke-width="1.7" stroke-linecap="round" opacity="0.46" style="animation-duration:3.75s;animation-delay:-3.87s"/><path class="s" d="M-140,448.2 L-114,458.2 L-88,465.2 L-62,467.7 L-36,465.2 L-10,457.8 L16,446.5 L42,433.0 L68,419.3 L94,407.7 L120,399.6 L146,396.1 L172,397.4 L198,402.7 L224,411.0 L250,420.7 L276,430.3 L302,438.7 L328,445.2 L354,449.6 L380,452.1 L406,453.0 L432,452.7 L458,451.3 L484,448.8 L510,445.0 L536,439.6 L562,432.7 L588,424.4 L614,415.6 L640,407.3 L666,400.9 L692,397.7 L718,398.6 L744,404.1 L770,413.7 L796,426.1 L822,439.8 L848,452.5 L874,462.3 L900,467.7 L926,467.8 L952,463.0 L978,454.0 L1004,442.6 L1030,430.4 L1056,419.4 L1082,410.9 L1108,405.6 L1134,403.7 L1160,404.7 L1186,408.0 L1212,412.6 L1238,417.9 L1264,423.5 L1290,429.1 L1316,434.8" fill="none" stroke="#60a5fa" stroke-width="2.1" stroke-linecap="round" opacity="0.29" style="animation-duration:2.87s;animation-delay:-3.10s"/></g><g><circle class="d" cx="38" cy="86" r="2.2" fill="#818cf8" opacity="0.14" style="animation-duration:3.79s;animation-delay:-3.00s"/><circle class="d" cx="1126" cy="290" r="1.3" fill="#a78bfa" opacity="0.18" style="animation-duration:3.31s;animation-delay:-1.65s"/><circle class="d" cx="305" cy="247" r="1.7" fill="#818cf8" opacity="0.21" style="animation-duration:2.62s;animation-delay:-0.14s"/><circle class="d" cx="831" cy="160" r="1.9" fill="#a78bfa" opacity="0.24" style="animation-duration:2.63s;animation-delay:-0.66s"/><circle class="d" cx="48" cy="206" r="1.5" fill="#a78bfa" opacity="0.20" style="animation-duration:3.22s;animation-delay:-0.81s"/><circle class="d" cx="651" cy="78" r="1.9" fill="#a78bfa" opacity="0.12" style="animation-duration:2.51s;animation-delay:-2.79s"/><circle class="d" cx="1178" cy="11" r="1.4" fill="#a78bfa" opacity="0.21" style="animation-duration:2.95s;animation-delay:-1.28s"/><circle class="d" cx="1171" cy="220" r="2.0" fill="#60a5fa" opacity="0.10" style="animation-duration:3.43s;animation-delay:-1.53s"/><circle class="d" cx="196" cy="155" r="2.3" fill="#a78bfa" opacity="0.23" style="animation-duration:3.38s;animation-delay:-3.65s"/><circle class="d" cx="274" cy="243" r="1.7" fill="#818cf8" opacity="0.20" style="animation-duration:2.93s;animation-delay:-0.94s"/><circle class="d" cx="627" cy="266" r="1.7" fill="#22d3ee" opacity="0.23" style="animation-duration:3.40s;animation-delay:-2.21s"/><circle class="d" cx="118" cy="310" r="2.0" fill="#22d3ee" opacity="0.13" style="animation-duration:3.09s;animation-delay:-1.44s"/><circle class="d" cx="83" cy="0" r="1.2" fill="#818cf8" opacity="0.18" style="animation-duration:3.87s;animation-delay:-1.72s"/><circle class="d" cx="463" cy="371" r="1.6" fill="#60a5fa" opacity="0.21" style="animation-duration:3.04s;animation-delay:-0.60s"/><circle class="d" cx="782" cy="194" r="1.6" fill="#818cf8" opacity="0.15" style="animation-duration:3.23s;animation-delay:-2.01s"/><circle class="d" cx="495" cy="253" r="1.9" fill="#a78bfa" opacity="0.17" style="animation-duration:3.19s;animation-delay:-2.55s"/><circle class="d" cx="808" cy="284" r="2.1" fill="#60a5fa" opacity="0.14" style="animation-duration:2.54s;animation-delay:-2.87s"/><circle class="d" cx="748" cy="221" r="1.5" fill="#22d3ee" opacity="0.11" style="animation-duration:3.76s;animation-delay:-0.56s"/><circle class="d" cx="871" cy="386" r="2.2" fill="#818cf8" opacity="0.24" style="animation-duration:3.76s;animation-delay:-0.90s"/><circle class="d" cx="486" cy="112" r="2.4" fill="#818cf8" opacity="0.17" style="animation-duration:2.64s;animation-delay:-2.61s"/><circle class="d" cx="1070" cy="239" r="1.2" fill="#60a5fa" opacity="0.11" style="animation-duration:2.41s;animation-delay:-3.98s"/><circle class="d" cx="642" cy="56" r="1.6" fill="#818cf8" opacity="0.12" style="animation-duration:3.28s;animation-delay:-0.61s"/><circle class="d" cx="244" cy="109" r="1.5" fill="#818cf8" opacity="0.19" style="animation-duration:3.42s;animation-delay:-1.93s"/><circle class="d" cx="213" cy="131" r="2.0" fill="#60a5fa" opacity="0.20" style="animation-duration:2.73s;animation-delay:-2.61s"/><circle class="d" cx="994" cy="77" r="1.1" fill="#818cf8" opacity="0.19" style="animation-duration:3.32s;animation-delay:-2.06s"/><circle class="d" cx="720" cy="306" r="2.3" fill="#22d3ee" opacity="0.15" style="animation-duration:3.49s;animation-delay:-3.08s"/><circle class="d" cx="839" cy="48" r="1.8" fill="#60a5fa" opacity="0.11" style="animation-duration:2.76s;animation-delay:-2.77s"/><circle class="d" cx="1072" cy="349" r="1.6" fill="#818cf8" opacity="0.19" style="animation-duration:3.99s;animation-delay:-3.76s"/><circle class="d" cx="1129" cy="174" r="1.4" fill="#a78bfa" opacity="0.17" style="animation-duration:3.46s;animation-delay:-1.53s"/><circle class="d" cx="561" cy="184" r="2.1" fill="#22d3ee" opacity="0.14" style="animation-duration:3.40s;animation-delay:-2.56s"/><circle class="d" cx="328" cy="396" r="1.1" fill="#22d3ee" opacity="0.21" style="animation-duration:2.77s;animation-delay:-3.21s"/><circle class="d" cx="91" cy="380" r="2.0" fill="#60a5fa" opacity="0.11" style="animation-duration:2.84s;animation-delay:-1.83s"/><circle class="d" cx="1186" cy="103" r="1.6" fill="#22d3ee" opacity="0.19" style="animation-duration:3.25s;animation-delay:-3.52s"/><circle class="d" cx="110" cy="187" r="2.4" fill="#60a5fa" opacity="0.13" style="animation-duration:3.89s;animation-delay:-2.27s"/><circle class="d" cx="1034" cy="317" r="1.6" fill="#60a5fa" opacity="0.18" style="animation-duration:2.49s;animation-delay:-2.15s"/><circle class="d" cx="1004" cy="302" r="1.7" fill="#a78bfa" opacity="0.21" style="animation-duration:2.59s;animation-delay:-3.73s"/><circle class="d" cx="966" cy="161" r="2.0" fill="#818cf8" opacity="0.22" style="animation-duration:3.98s;animation-delay:-3.70s"/><circle class="d" cx="568" cy="276" r="1.9" fill="#60a5fa" opacity="0.14" style="animation-duration:3.33s;animation-delay:-0.58s"/><circle class="d" cx="31" cy="47" r="1.6" fill="#22d3ee" opacity="0.22" style="animation-duration:3.80s;animation-delay:-3.53s"/><circle class="d" cx="512" cy="142" r="1.5" fill="#60a5fa" opacity="0.14" style="animation-duration:2.77s;animation-delay:-0.22s"/><circle class="d" cx="226" cy="129" r="1.6" fill="#22d3ee" opacity="0.20" style="animation-duration:3.75s;animation-delay:-2.63s"/><circle class="d" cx="1164" cy="74" r="1.5" fill="#818cf8" opacity="0.20" style="animation-duration:2.55s;animation-delay:-0.01s"/><circle class="d" cx="528" cy="246" r="1.2" fill="#60a5fa" opacity="0.17" style="animation-duration:3.05s;animation-delay:-3.34s"/><circle class="d" cx="823" cy="317" r="1.1" fill="#22d3ee" opacity="0.22" style="animation-duration:3.00s;animation-delay:-1.90s"/><circle class="d" cx="563" cy="110" r="1.5" fill="#22d3ee" opacity="0.14" style="animation-duration:3.46s;animation-delay:-0.91s"/><circle class="d" cx="508" cy="297" r="1.7" fill="#22d3ee" opacity="0.22" style="animation-duration:2.87s;animation-delay:-0.26s"/><circle class="d" cx="948" cy="86" r="2.3" fill="#22d3ee" opacity="0.23" style="animation-duration:3.81s;animation-delay:-2.83s"/><circle class="d" cx="338" cy="302" r="2.3" fill="#818cf8" opacity="0.18" style="animation-duration:3.69s;animation-delay:-2.07s"/><circle class="d" cx="642" cy="387" r="1.8" fill="#a78bfa" opacity="0.19" style="animation-duration:3.59s;animation-delay:-1.23s"/><circle class="d" cx="706" cy="326" r="2.1" fill="#22d3ee" opacity="0.21" style="animation-duration:3.63s;animation-delay:-1.57s"/><circle class="d" cx="8" cy="69" r="1.9" fill="#a78bfa" opacity="0.16" style="animation-duration:2.46s;animation-delay:-2.13s"/><circle class="d" cx="983" cy="95" r="1.4" fill="#22d3ee" opacity="0.19" style="animation-duration:3.83s;animation-delay:-3.78s"/><circle class="d" cx="445" cy="156" r="2.2" fill="#a78bfa" opacity="0.23" style="animation-duration:3.77s;animation-delay:-3.70s"/><circle class="d" cx="707" cy="153" r="1.5" fill="#60a5fa" opacity="0.15" style="animation-duration:2.97s;animation-delay:-2.04s"/><circle class="d" cx="1" cy="75" r="1.5" fill="#818cf8" opacity="0.20" style="animation-duration:2.42s;animation-delay:-1.50s"/><circle class="d" cx="244" cy="344" r="1.3" fill="#a78bfa" opacity="0.24" style="animation-duration:3.03s;animation-delay:-0.67s"/><circle class="d" cx="498" cy="256" r="1.8" fill="#a78bfa" opacity="0.10" style="animation-duration:2.76s;animation-delay:-2.29s"/><circle class="d" cx="472" cy="213" r="1.3" fill="#22d3ee" opacity="0.11" style="animation-duration:2.61s;animation-delay:-1.10s"/><circle class="d" cx="393" cy="20" r="1.1" fill="#22d3ee" opacity="0.19" style="animation-duration:3.12s;animation-delay:-2.42s"/><circle class="d" cx="1020" cy="307" r="1.5" fill="#60a5fa" opacity="0.13" style="animation-duration:3.94s;animation-delay:-2.80s"/><circle class="d" cx="313" cy="364" r="2.2" fill="#a78bfa" opacity="0.13" style="animation-duration:3.47s;animation-delay:-3.04s"/><circle class="d" cx="646" cy="313" r="1.6" fill="#22d3ee" opacity="0.12" style="animation-duration:3.60s;animation-delay:-2.84s"/><circle class="d" cx="543" cy="242" r="1.7" fill="#a78bfa" opacity="0.20" style="animation-duration:2.88s;animation-delay:-1.62s"/><circle class="d" cx="730" cy="121" r="2.3" fill="#22d3ee" opacity="0.16" style="animation-duration:3.80s;animation-delay:-3.21s"/><circle class="d" cx="625" cy="377" r="1.9" fill="#22d3ee" opacity="0.11" style="animation-duration:2.44s;animation-delay:-1.76s"/><circle class="d" cx="710" cy="198" r="1.2" fill="#a78bfa" opacity="0.14" style="animation-duration:2.75s;animation-delay:-1.38s"/><circle class="d" cx="633" cy="376" r="1.2" fill="#60a5fa" opacity="0.24" style="animation-duration:3.93s;animation-delay:-0.27s"/><circle class="d" cx="606" cy="331" r="2.3" fill="#a78bfa" opacity="0.11" style="animation-duration:2.72s;animation-delay:-2.32s"/><circle class="d" cx="1060" cy="247" r="1.9" fill="#60a5fa" opacity="0.14" style="animation-duration:2.66s;animation-delay:-3.81s"/><circle class="d" cx="98" cy="349" r="1.7" fill="#818cf8" opacity="0.14" style="animation-duration:2.85s;animation-delay:-3.91s"/><circle class="d" cx="1046" cy="42" r="1.8" fill="#22d3ee" opacity="0.15" style="animation-duration:3.82s;animation-delay:-3.62s"/><circle class="d" cx="803" cy="166" r="2.4" fill="#818cf8" opacity="0.17" style="animation-duration:3.48s;animation-delay:-3.96s"/><circle class="d" cx="813" cy="187" r="1.4" fill="#22d3ee" opacity="0.22" style="animation-duration:2.77s;animation-delay:-1.78s"/><circle class="d" cx="1060" cy="147" r="1.2" fill="#60a5fa" opacity="0.12" style="animation-duration:2.53s;animation-delay:-3.77s"/><circle class="d" cx="672" cy="323" r="2.4" fill="#22d3ee" opacity="0.24" style="animation-duration:3.67s;animation-delay:-3.06s"/><circle class="d" cx="63" cy="121" r="2.2" fill="#22d3ee" opacity="0.23" style="animation-duration:2.57s;animation-delay:-2.03s"/><circle class="d" cx="559" cy="120" r="1.9" fill="#60a5fa" opacity="0.23" style="animation-duration:3.98s;animation-delay:-3.62s"/><circle class="d" cx="346" cy="216" r="1.5" fill="#22d3ee" opacity="0.20" style="animation-duration:3.78s;animation-delay:-0.95s"/><circle class="d" cx="955" cy="330" r="1.4" fill="#60a5fa" opacity="0.14" style="animation-duration:3.92s;animation-delay:-2.06s"/><circle class="d" cx="942" cy="114" r="2.2" fill="#a78bfa" opacity="0.16" style="animation-duration:2.71s;animation-delay:-1.74s"/></g></g>
<rect width="1200" height="400" fill="url(#vig)"/>
<g class="wm"><text x="600" y="165" text-anchor="middle" font-size="76" font-weight="800" letter-spacing="-1.5" fill="#e6edf3"><tspan fill="url(#accent)">hero</tspan><tspan>-readme</tspan></text></g>
<text class="tg" x="600" y="205" text-anchor="middle" font-size="22" font-weight="500" fill="#aeb8c6">authentic, animated hero images for your README</text>
<g class="band">
  <rect x="330" y="250" width="540" height="86" rx="10" fill="url(#accent)"/>
  <rect x="356" y="276" width="190" height="15" rx="7.5" fill="#fff" opacity="0.95"/>
  <rect x="356" y="300" width="116" height="10" rx="5" fill="#fff" opacity="0.72"/>
  <clipPath id="bclip2"><rect x="330" y="250" width="540" height="86" rx="10"/></clipPath>
  <g clip-path="url(#bclip2)"><g class="shim"><rect x="330" y="240" width="90" height="108" fill="url(#shimmer)" transform="skewX(-16)"/></g></g>
</g>
</g></svg>